<svg width="40.000000" height="41.000000" viewBox="0 0 40 41" fill="none" xmlns="http://www.w3.org/2000/svg" xmlns:xlink="http://www.w3.org/1999/xlink">
	<desc>
			Created with Pixso.
	</desc>
	<defs>
		<clipPath id="clip148_2325">
			<rect id="shopping_basket" width="32.000000" height="32.000000" transform="translate(3.000000 1.000000)" fill="white" fill-opacity="0"/>
		</clipPath>
	</defs>
	<rect id="Rectangle 72" rx="20.000000" width="40.000000" height="41.000000" fill="#EB5757" fill-opacity="1.000000"/>
	<g clip-path="url(#clip148_2325)">
		<path id="Vector" d="M33.6 15.29L26.92 15.29L20.82 5.61C20.55 5.2 20.11 5 19.66 5C19.22 5 18.77 5.2 18.5 5.63L12.4 15.29L5.72 15.29C4.96 15.29 4.33 15.96 4.33 16.77C4.33 16.9 4.34 17.03 4.38 17.16L7.92 30.84C8.25 32.08 9.32 33 10.6 33L28.72 33C30 33 31.08 32.08 31.41 30.84L34.95 17.16L35 16.77C35 15.96 34.37 15.29 33.6 15.29ZM19.66 9.1L23.56 15.29L15.76 15.29L19.66 9.1ZM28.72 30.04L10.62 30.06L7.55 18.24L31.79 18.24L28.72 30.04ZM19.66 21.19C18.13 21.19 16.87 22.52 16.87 24.14C16.87 25.77 18.13 27.09 19.66 27.09C21.2 27.09 22.45 25.77 22.45 24.14C22.45 22.52 21.2 21.19 19.66 21.19Z" fill="#FFFFFF" fill-opacity="1.000000" fill-rule="nonzero"/>
	</g>
</svg>
