<svg width="40.000000" height="41.000000" viewBox="0 0 40 41" fill="none" xmlns="http://www.w3.org/2000/svg" xmlns:xlink="http://www.w3.org/1999/xlink">
	<desc>
			Created with Pixso.
	</desc>
	<defs/>
	<mask id="mask146_4733" mask-type="alpha" maskUnits="userSpaceOnUse" x="0.000000" y="0.000000" width="39.027779" height="40.784313">
		<ellipse id="mask" cx="19.513916" cy="20.392578" rx="19.513889" ry="20.392157" fill="#C4C4C4" fill-opacity="1.000000"/>
	</mask>
	<g mask="url(#mask146_4733)">
		<rect id="Rectangle 157" width="40.000000" height="41.000000" fill="#F178B6" fill-opacity="1.000000"/>
	</g>
	<g mask="url(#mask146_4733)">
		<path id="MR" d="M12.45 25.17L8.35 14.28L5.15 14.28L5.15 28.5L7.61 28.5L7.61 23.81L7.36 17.55L11.55 28.5L13.32 28.5L17.52 17.54L17.27 23.81L17.27 28.5L19.74 28.5L19.74 14.28L16.54 14.28L12.45 25.17ZM25.73 23.02L28.48 23.02L31.33 28.5L33.98 28.5L33.98 28.37L30.78 22.44Q31.88 21.98 32.54 21.17Q32.63 21.07 32.7 20.96Q32.73 20.92 32.76 20.88Q33.39 19.94 33.39 18.57Q33.39 17.01 32.65 16Q32.39 15.66 32.05 15.38Q30.72 14.28 28.26 14.28L23.26 14.28L23.26 28.5L25.73 28.5L25.73 23.02ZM28.26 21.03L25.73 21.03L25.73 16.27L28.33 16.27Q29.62 16.29 30.27 16.91Q30.36 17 30.44 17.1Q30.92 17.7 30.92 18.68Q30.92 19.46 30.56 20.01Q30.42 20.22 30.22 20.4Q30.21 20.42 30.19 20.43Q29.49 21.03 28.26 21.03Z" fill="#FFFFFF" fill-opacity="1.000000" fill-rule="evenodd"/>
	</g>
</svg>
